<?xml version="1.0" encoding="UTF-8" standalone="no"?>
<svg
   xmlns:dc="http://purl.org/dc/elements/1.1/"
   xmlns:cc="http://creativecommons.org/ns#"
   xmlns:rdf="http://www.w3.org/1999/02/22-rdf-syntax-ns#"
   xmlns:svg="http://www.w3.org/2000/svg"
   xmlns="http://www.w3.org/2000/svg"
   id="svg4645"
   version="1.1"
   viewBox="0 0 1007.2326 520.90759"
   height="520.90759mm"
   width="1007.2327mm">
  <defs
     id="defs4639" />
  <metadata
     id="metadata4642">
    <rdf:RDF>
      <cc:Work
         rdf:about="">
        <dc:format>image/svg+xml</dc:format>
        <dc:type
           rdf:resource="http://purl.org/dc/dcmitype/StillImage" />
        <dc:title></dc:title>
      </cc:Work>
    </rdf:RDF>
  </metadata>
  <g
     transform="translate(513.93562,140.4348)"
     id="layer1">
    <path
       id="circle4181"
       d="M 6.9719696,120.019 A 260.4538,260.4538 0 0 1 -253.48183,380.47279 260.4538,260.4538 0 0 1 -513.93562,120.019 260.4538,260.4538 0 0 1 -253.48183,-140.4348 260.4538,260.4538 0 0 1 6.9719696,120.019 Z"
       style="opacity:1;fill:#c62828;fill-opacity:1;stroke:none;stroke-width:6.0800705;stroke-linecap:round;stroke-linejoin:round;stroke-miterlimit:4;stroke-dasharray:none;stroke-opacity:1;paint-order:stroke fill markers" />
    <path
       id="circle4183"
       d="M -31.330048,120.019 A 222.15178,222.15178 0 0 1 -253.48183,342.17078 222.15178,222.15178 0 0 1 -475.63361,120.019 222.15178,222.15178 0 0 1 -253.48183,-102.13278 222.15178,222.15178 0 0 1 -31.330048,120.019 Z"
       style="opacity:1;fill:#8e0000;fill-opacity:1;stroke:none;stroke-width:5.18594313;stroke-linecap:round;stroke-linejoin:round;stroke-miterlimit:4;stroke-dasharray:none;stroke-opacity:1;paint-order:stroke fill markers" />
    <g
       id="text4189"
       style="font-style:normal;font-weight:normal;font-size:295.14108276px;line-height:272.40072632px;font-family:sans-serif;letter-spacing:-23.10401344px;word-spacing:0px;fill:#c62828;fill-opacity:1;stroke:none;stroke-width:3.45868325"
       aria-label="RUSBÉ">
      <path
         id="path5262"
         style="fill:#ffffff;fill-opacity:1;stroke-width:3.45868325"
         d="m -230.78626,232.4682 -43.0906,-78.21239 h -12.10078 v 78.21239 h -50.46913 V 25.279161 h 84.70549 q 24.49671,0 41.6149,8.559091 17.41332,8.559091 25.97241,23.611287 8.55909,14.757054 8.55909,33.055801 0,20.65988 -11.80564,36.89264 -11.5105,16.23275 -34.23637,23.021 l 47.81286,82.04922 z m -55.19138,-113.92446 h 31.28495 q 13.87163,0 20.65988,-6.78824 7.08338,-6.78825 7.08338,-19.184173 0,-12.100784 -7.08338,-18.889029 -6.78825,-7.083386 -20.65988,-7.083386 h -31.28495 z" />
      <path
         id="path5264"
         style="fill:#ffffff;fill-opacity:1;stroke-width:3.45868325"
         d="M -112.74002,25.279161 V 148.94327 q 0,18.59389 9.14938,28.62869 9.149369,10.0348 26.857834,10.0348 17.708465,0 27.15298,-10.0348 9.444514,-10.0348 9.444514,-28.62869 V 25.279161 H 10.333814 V 148.94327 q 0,27.74327 -11.8056438,46.92744 -11.8056432,19.18417 -31.8752372,28.92382 -19.774452,9.73966 -44.271162,9.73966 -24.496711,0 -43.976021,-9.44452 -19.18417,-9.73965 -30.39953,-28.92382 -11.21536,-19.47931 -11.21536,-47.22258 V 25.279161 Z" />
      <path
         id="path5266"
         style="font-style:normal;font-variant:normal;font-weight:bold;font-stretch:normal;line-height:272.40072632px;font-family:Poppins;-inkscape-font-specification:'Poppins Bold';letter-spacing:-18.41039658px;fill:#c62828;fill-opacity:1;stroke-width:3.45868325"
         d="m 102.32925,234.53419 q -22.725864,0 -40.729471,-7.37853 Q 43.596173,219.77713 32.675953,205.31522 22.050874,190.85331 21.460592,170.48857 h 53.715677 q 1.180565,11.80565 7.96881,18.00361 6.788244,6.19796 17.708461,6.19796 11.21536,0 17.70847,-5.31254 6.4931,-5.60768 6.4931,-14.75705 0,-7.67367 -5.31254,-12.69107 -5.0174,-5.0174 -12.69106,-8.26395 -7.378531,-3.24655 -21.250162,-7.37853 -20.069593,-6.19796 -32.76066,-12.39592 -12.691066,-6.19796 -21.84044,-18.29875 -9.149374,-12.10078 -9.149374,-31.580094 0,-28.923826 20.955017,-45.156586 20.955017,-16.5279 54.601101,-16.5279 34.236368,0 55.191378,16.5279 20.95502,16.23276 22.43073,45.451727 H 120.628 q -0.59029,-10.625079 -7.37853,-16.232759 -6.4931,-5.902822 -17.413325,-5.902822 -9.149373,0 -14.757054,5.017398 -5.607681,5.017399 -5.607681,14.461913 0,10.034797 9.444515,15.642478 9.444515,5.607685 29.514105,12.100785 20.0696,6.78824 32.46552,12.98621 12.69107,6.19796 21.84044,18.0036 9.14938,11.80565 9.14938,30.39953 0,17.70847 -9.14938,32.17038 -8.85423,14.46192 -25.97241,23.02101 -17.11819,8.55909 -40.43433,8.55909 z" />
      <path
         id="path5268"
         style="font-style:normal;font-variant:normal;font-weight:bold;font-stretch:normal;line-height:272.40072632px;font-family:Poppins;-inkscape-font-specification:'Poppins Bold';letter-spacing:-18.41039658px;fill:#c62828;fill-opacity:1;stroke-width:3.45868325"
         d="m 315.96891,126.21741 q 18.0036,3.83683 28.92382,18.00361 10.92022,13.87163 10.92022,31.87523 0,25.97242 -18.29874,41.31976 -18.00361,15.05219 -50.46913,15.05219 H 190.53395 V 25.279161 h 93.26458 q 31.58009,0 49.28856,14.461913 18.00361,14.461913 18.00361,39.253764 0,18.298747 -9.73966,30.399532 -9.44452,12.10078 -25.38213,16.82304 z m -74.96584,-16.82304 h 33.0558 q 12.39593,0 18.88903,-5.60768 6.78825,-5.607682 6.78825,-16.232761 0,-10.92022 -6.78825,-16.527901 -6.4931,-5.902821 -18.88903,-5.902821 h -33.0558 z m 37.18778,82.93464 q 12.69106,0 19.47931,-5.90282 7.08339,-5.90282 7.08339,-17.11818 0,-10.92022 -7.37853,-17.11818 -7.08339,-6.49311 -19.77445,-6.49311 h -36.5975 v 46.63229 z" />
      <path
         id="path5270"
         style="font-style:normal;font-variant:normal;font-weight:bold;font-stretch:normal;line-height:272.40072632px;font-family:Poppins;-inkscape-font-specification:'Poppins Bold';letter-spacing:-18.41039658px;fill:#c62828;fill-opacity:1;stroke-width:3.45868325"
         d="M 416.85549,65.123207 V 108.2138 h 67.58731 v 38.0732 h -67.58731 v 46.33715 h 76.44154 V 232.4682 H 366.38636 V 25.279161 h 126.91067 v 39.844046 z m 46.04201,-81.458939 -71.129,29.809249 V -21.35313 l 71.129,-34.236366 z" />
    </g>
    <path
       id="path4191"
       d="m -295.31641,-55.515625 a 10.671592,10.671592 0 0 0 -2.84765,0.369141 c -75.92386,19.366977 -130.7854,85.553235 -135.73242,163.751954 a 10.671592,10.671592 0 1 0 21.29882,1.34765 c 4.36805,-69.046597 52.66905,-127.319586 119.70704,-144.419917 a 10.671592,10.671592 0 0 0 -2.42579,-21.048828 z"
       style="color:#000000;font-style:normal;font-variant:normal;font-weight:normal;font-stretch:normal;font-size:medium;line-height:normal;font-family:sans-serif;font-variant-ligatures:normal;font-variant-position:normal;font-variant-caps:normal;font-variant-numeric:normal;font-variant-alternates:normal;font-feature-settings:normal;text-indent:0;text-align:start;text-decoration:none;text-decoration-line:none;text-decoration-style:solid;text-decoration-color:#000000;letter-spacing:normal;word-spacing:normal;text-transform:none;writing-mode:lr-tb;direction:ltr;text-orientation:mixed;dominant-baseline:auto;baseline-shift:baseline;text-anchor:start;white-space:normal;shape-padding:0;clip-rule:nonzero;display:inline;overflow:visible;visibility:visible;opacity:1;isolation:auto;mix-blend-mode:normal;color-interpolation:sRGB;color-interpolation-filters:linearRGB;solid-color:#000000;solid-opacity:1;vector-effect:none;fill:#ffffff;fill-opacity:0.93333333;fill-rule:nonzero;stroke:none;stroke-width:21.34104919;stroke-linecap:round;stroke-linejoin:round;stroke-miterlimit:4;stroke-dasharray:none;stroke-dashoffset:0;stroke-opacity:1;paint-order:stroke fill markers;color-rendering:auto;image-rendering:auto;shape-rendering:auto;text-rendering:auto;enable-background:accumulate" />
    <path
       id="path4193"
       d="m -256.26758,-60.732422 a 10.671592,10.671592 0 1 0 0.27735,21.337891 h 0.002 a 10.671592,10.671592 0 1 0 -0.27734,-21.337891 z"
       style="color:#000000;font-style:normal;font-variant:normal;font-weight:normal;font-stretch:normal;font-size:medium;line-height:normal;font-family:sans-serif;font-variant-ligatures:normal;font-variant-position:normal;font-variant-caps:normal;font-variant-numeric:normal;font-variant-alternates:normal;font-feature-settings:normal;text-indent:0;text-align:start;text-decoration:none;text-decoration-line:none;text-decoration-style:solid;text-decoration-color:#000000;letter-spacing:normal;word-spacing:normal;text-transform:none;writing-mode:lr-tb;direction:ltr;text-orientation:mixed;dominant-baseline:auto;baseline-shift:baseline;text-anchor:start;white-space:normal;shape-padding:0;clip-rule:nonzero;display:inline;overflow:visible;visibility:visible;opacity:1;isolation:auto;mix-blend-mode:normal;color-interpolation:sRGB;color-interpolation-filters:linearRGB;solid-color:#000000;solid-opacity:1;vector-effect:none;fill:#ffffff;fill-opacity:0.93333333;fill-rule:nonzero;stroke:none;stroke-width:21.34104919;stroke-linecap:round;stroke-linejoin:round;stroke-miterlimit:4;stroke-dasharray:none;stroke-dashoffset:0;stroke-opacity:1;paint-order:stroke fill markers;color-rendering:auto;image-rendering:auto;shape-rendering:auto;text-rendering:auto;enable-background:accumulate" />
  </g>
</svg>
