<?xml version="1.0" encoding="UTF-8" standalone="no"?>
<svg
   xmlns:dc="http://purl.org/dc/elements/1.1/"
   xmlns:cc="http://creativecommons.org/ns#"
   xmlns:rdf="http://www.w3.org/1999/02/22-rdf-syntax-ns#"
   xmlns:svg="http://www.w3.org/2000/svg"
   xmlns="http://www.w3.org/2000/svg"
   id="svg4645"
   version="1.1"
   viewBox="0 0 1007.2327 520.90759"
   height="520.90759mm"
   width="1007.2327mm">
  <defs
     id="defs4639" />
  <metadata
     id="metadata4642">
    <rdf:RDF>
      <cc:Work
         rdf:about="">
        <dc:format>image/svg+xml</dc:format>
        <dc:type
           rdf:resource="http://purl.org/dc/dcmitype/StillImage" />
        <dc:title></dc:title>
      </cc:Work>
    </rdf:RDF>
  </metadata>
  <g
     transform="translate(533.09848,141.10261)"
     id="layer1">
    <path
       id="circle4610"
       d="m -12.190887,119.35119 a 260.4538,260.4538 0 0 1 -260.453793,260.4538 260.4538,260.4538 0 0 1 -260.4538,-260.4538 260.4538,260.4538 0 0 1 260.4538,-260.4538 260.4538,260.4538 0 0 1 260.453793,260.4538 z"
       style="opacity:1;fill:#ffffff;fill-opacity:0.98367345;stroke:none;stroke-width:6.0800705;stroke-linecap:round;stroke-linejoin:round;stroke-miterlimit:4;stroke-dasharray:none;stroke-opacity:1;paint-order:stroke fill markers" />
    <path
       id="circle4612"
       d="M -50.492905,119.35119 A 222.15178,222.15178 0 0 1 -272.64468,341.50297 222.15178,222.15178 0 0 1 -494.79646,119.35119 222.15178,222.15178 0 0 1 -272.64468,-102.80059 222.15178,222.15178 0 0 1 -50.492905,119.35119 Z"
       style="opacity:1;fill:#8e0000;fill-opacity:1;stroke:none;stroke-width:5.18594313;stroke-linecap:round;stroke-linejoin:round;stroke-miterlimit:4;stroke-dasharray:none;stroke-opacity:1;paint-order:stroke fill markers" />
    <g
       id="text4618"
       style="font-style:normal;font-weight:normal;font-size:295.14108276px;line-height:272.40072632px;font-family:sans-serif;letter-spacing:-23.10401344px;word-spacing:0px;fill:#c62828;fill-opacity:1;stroke:none;stroke-width:3.45868325"
       aria-label="RUSBÉ">
      <path
         id="path5210"
         style="font-style:normal;font-variant:normal;font-weight:bold;font-stretch:normal;line-height:272.40072632px;font-family:Poppins;-inkscape-font-specification:'Poppins Bold';letter-spacing:-18.41039658px;fill:#c62828;fill-opacity:1;stroke-width:3.45868325"
         d="m -249.9491,231.80042 -43.0906,-78.21239 h -12.10078 v 78.21239 h -50.46913 V 24.611375 h 84.70549 q 24.49671,0 41.61489,8.559091 17.41333,8.559092 25.97242,23.611287 8.55909,14.757054 8.55909,33.055801 0,20.659876 -11.80564,36.892636 -11.5105,16.23276 -34.23637,23.021 l 47.81286,82.04923 z m -55.19138,-113.92446 h 31.28495 q 13.87163,0 20.65988,-6.78825 7.08338,-6.78824 7.08338,-19.184168 0,-12.100785 -7.08338,-18.889029 -6.78825,-7.083386 -20.65988,-7.083386 h -31.28495 z" />
      <path
         id="path5212"
         style="font-style:normal;font-variant:normal;font-weight:bold;font-stretch:normal;line-height:272.40072632px;font-family:Poppins;-inkscape-font-specification:'Poppins Bold';letter-spacing:-18.41039658px;fill:#c62828;fill-opacity:1;stroke-width:3.45868325"
         d="M -131.90286,24.611375 V 148.27549 q 0,18.59389 9.14937,28.62868 9.14938,10.0348 26.857842,10.0348 17.708465,0 27.15298,-10.0348 9.444515,-10.03479 9.444515,-28.62868 V 24.611375 H -8.8290283 V 148.27549 q 0,27.74326 -11.8056437,46.92743 -11.805643,19.18417 -31.875237,28.92383 -19.774452,9.73965 -44.271162,9.73965 -24.496709,0 -43.976019,-9.44451 -19.18417,-9.73966 -30.39953,-28.92383 -11.21536,-19.47931 -11.21536,-47.22257 V 24.611375 Z" />
      <path
         id="path5214"
         style="fill:#ffffff;fill-opacity:1;stroke-width:3.45868325"
         d="m 83.166407,233.8664 q -22.725863,0 -40.729469,-7.37852 Q 24.433332,219.10935 13.513112,204.64744 2.8880326,190.18552 2.2977504,169.82079 H 56.013427 q 1.180565,11.80564 7.96881,18.0036 6.788245,6.19797 17.708465,6.19797 11.215361,0 17.708465,-5.31254 6.493103,-5.60768 6.493103,-14.75706 0,-7.67367 -5.31254,-12.69106 -5.017397,-5.0174 -12.691066,-8.26395 -7.378527,-3.24656 -21.250158,-7.37853 -20.069593,-6.19796 -32.76066,-12.39593 -12.691066,-6.19796 -21.84044,-18.29874 -9.1493734,-12.10079 -9.1493734,-31.5801 0,-28.923826 20.9550164,-45.156585 20.955017,-16.527901 54.601101,-16.527901 34.23637,0 55.19138,16.527901 20.95502,16.232759 22.43072,45.451726 h -54.6011 Q 100.87487,73.014513 94.086627,67.406832 87.593523,61.50401 76.673303,61.50401 q -9.149373,0 -14.757054,5.017399 -5.60768,5.017398 -5.60768,14.461913 0,10.034797 9.444514,15.642477 9.444515,5.607681 29.514108,12.100781 20.069599,6.78825 32.465519,12.98621 12.69107,6.19796 21.84044,18.00361 9.14937,11.80564 9.14937,30.39953 0,17.70846 -9.14937,32.17038 -8.85423,14.46191 -25.97241,23.021 -17.11819,8.55909 -40.434333,8.55909 z" />
      <path
         id="path5216"
         style="fill:#ffffff;fill-opacity:1;stroke-width:3.45868325"
         d="m 296.80606,125.54963 q 18.00361,3.83683 28.92383,18.0036 10.92022,13.87163 10.92022,31.87524 0,25.97241 -18.29875,41.31975 -18.0036,15.0522 -50.46912,15.0522 H 171.3711 V 24.611375 h 93.26459 q 31.58009,0 49.28856,14.461913 18.0036,14.461913 18.0036,39.253764 0,18.298747 -9.73965,30.399528 -9.44452,12.10079 -25.38214,16.82305 z m -74.96583,-16.82305 h 33.0558 q 12.39593,0 18.88903,-5.60768 6.78824,-5.607678 6.78824,-16.232757 0,-10.92022 -6.78824,-16.5279 -6.4931,-5.902822 -18.88903,-5.902822 h -33.0558 z m 37.18778,82.93465 q 12.69106,0 19.47931,-5.90282 7.08338,-5.90283 7.08338,-17.11819 0,-10.92022 -7.37852,-17.11818 -7.08339,-6.4931 -19.77446,-6.4931 h -36.59749 v 46.63229 z" />
      <path
         id="path5218"
         style="fill:#ffffff;fill-opacity:1;stroke-width:3.45868325"
         d="m 397.69265,64.455421 v 43.090599 h 67.5873 v 38.0732 h -67.5873 v 46.33715 h 76.44154 v 39.84405 H 347.22352 V 24.611375 h 126.91067 v 39.844046 z m 46.04201,-81.458939 -71.12901,29.80925 v -34.826648 l 71.12901,-34.236366 z" />
    </g>
    <path
       id="path4620"
       d="m -314.48047,-56.183594 a 10.671592,10.671592 0 0 0 -2.84765,0.369141 c -75.92386,19.366981 -130.78345,85.553238 -135.73047,163.751953 a 10.671592,10.671592 0 1 0 21.29882,1.34766 c 4.36805,-69.046603 52.66905,-127.319591 119.70704,-144.419926 a 10.671592,10.671592 0 0 0 -2.42774,-21.048828 z"
       style="color:#000000;font-style:normal;font-variant:normal;font-weight:normal;font-stretch:normal;font-size:medium;line-height:normal;font-family:sans-serif;font-variant-ligatures:normal;font-variant-position:normal;font-variant-caps:normal;font-variant-numeric:normal;font-variant-alternates:normal;font-feature-settings:normal;text-indent:0;text-align:start;text-decoration:none;text-decoration-line:none;text-decoration-style:solid;text-decoration-color:#000000;letter-spacing:normal;word-spacing:normal;text-transform:none;writing-mode:lr-tb;direction:ltr;text-orientation:mixed;dominant-baseline:auto;baseline-shift:baseline;text-anchor:start;white-space:normal;shape-padding:0;clip-rule:nonzero;display:inline;overflow:visible;visibility:visible;opacity:1;isolation:auto;mix-blend-mode:normal;color-interpolation:sRGB;color-interpolation-filters:linearRGB;solid-color:#000000;solid-opacity:1;vector-effect:none;fill:#ffffff;fill-opacity:0.93333333;fill-rule:nonzero;stroke:none;stroke-width:21.34104919;stroke-linecap:round;stroke-linejoin:round;stroke-miterlimit:4;stroke-dasharray:none;stroke-dashoffset:0;stroke-opacity:1;paint-order:stroke fill markers;color-rendering:auto;image-rendering:auto;shape-rendering:auto;text-rendering:auto;enable-background:accumulate" />
    <path
       id="path4622"
       d="m -275.42578,-61.400391 a 10.671592,10.671592 0 1 0 0.26758,21.337891 h 0.002 a 10.671592,10.671592 0 1 0 -0.26758,-21.337891 z"
       style="color:#000000;font-style:normal;font-variant:normal;font-weight:normal;font-stretch:normal;font-size:medium;line-height:normal;font-family:sans-serif;font-variant-ligatures:normal;font-variant-position:normal;font-variant-caps:normal;font-variant-numeric:normal;font-variant-alternates:normal;font-feature-settings:normal;text-indent:0;text-align:start;text-decoration:none;text-decoration-line:none;text-decoration-style:solid;text-decoration-color:#000000;letter-spacing:normal;word-spacing:normal;text-transform:none;writing-mode:lr-tb;direction:ltr;text-orientation:mixed;dominant-baseline:auto;baseline-shift:baseline;text-anchor:start;white-space:normal;shape-padding:0;clip-rule:nonzero;display:inline;overflow:visible;visibility:visible;opacity:1;isolation:auto;mix-blend-mode:normal;color-interpolation:sRGB;color-interpolation-filters:linearRGB;solid-color:#000000;solid-opacity:1;vector-effect:none;fill:#ffffff;fill-opacity:0.93333333;fill-rule:nonzero;stroke:none;stroke-width:21.34104919;stroke-linecap:round;stroke-linejoin:round;stroke-miterlimit:4;stroke-dasharray:none;stroke-dashoffset:0;stroke-opacity:1;paint-order:stroke fill markers;color-rendering:auto;image-rendering:auto;shape-rendering:auto;text-rendering:auto;enable-background:accumulate" />
  </g>
</svg>
