<?xml version="1.0" encoding="UTF-8" standalone="no"?>
<svg
   xmlns:dc="http://purl.org/dc/elements/1.1/"
   xmlns:cc="http://creativecommons.org/ns#"
   xmlns:rdf="http://www.w3.org/1999/02/22-rdf-syntax-ns#"
   xmlns:svg="http://www.w3.org/2000/svg"
   xmlns="http://www.w3.org/2000/svg"
   id="svg3543"
   version="1.1"
   viewBox="0 0 1516.8604 285.20364"
   height="285.20364mm"
   width="1516.8604mm">
  <defs
     id="defs3537" />
  <metadata
     id="metadata3540">
    <rdf:RDF>
      <cc:Work
         rdf:about="">
        <dc:format>image/svg+xml</dc:format>
        <dc:type
           rdf:resource="http://purl.org/dc/dcmitype/StillImage" />
        <dc:title></dc:title>
      </cc:Work>
    </rdf:RDF>
  </metadata>
  <g
     transform="translate(692.66233,-5.475561)"
     id="layer1">
    <path
       style="opacity:1;fill:#c62828;fill-opacity:1;stroke:none;stroke-width:3.32891726;stroke-linecap:round;stroke-linejoin:round;stroke-miterlimit:4;stroke-dasharray:none;stroke-opacity:1;paint-order:stroke fill markers"
       d="M 822.35743,148.07738 A 142.60182,142.60182 0 0 1 679.75563,290.6792 142.60182,142.60182 0 0 1 537.15373,148.07738 142.60182,142.60182 0 0 1 679.75563,5.475561 142.60182,142.60182 0 0 1 822.35743,148.07738 Z"
       id="circle3414" />
    <path
       style="opacity:1;fill:#8e0000;fill-opacity:1;stroke:none;stroke-width:2.8393712;stroke-linecap:round;stroke-linejoin:round;stroke-miterlimit:4;stroke-dasharray:none;stroke-opacity:1;paint-order:stroke fill markers"
       d="M 801.38653,148.07738 A 121.63098,121.63098 0 0 1 679.75563,269.70836 121.63098,121.63098 0 0 1 558.12463,148.07738 121.63098,121.63098 0 0 1 679.75563,26.446401 121.63098,121.63098 0 0 1 801.38653,148.07738 Z"
       id="circle3416" />
    <g
       aria-label="RU"
       style="font-style:normal;font-weight:normal;font-size:161.59356689px;line-height:149.14292908px;font-family:sans-serif;letter-spacing:-12.64974594px;word-spacing:0px;fill:#c62828;fill-opacity:1;stroke:none;stroke-width:1.8936739"
       id="text3422"
       transform="translate(-24.012737,5.475561)">
      <path
         d="m 716.19443,204.16924 -23.59266,-42.8223 h -6.62533 v 42.8223 h -27.6325 V 90.730551 h 46.37735 q 13.41227,0 22.78469,4.686214 9.53402,4.686215 14.22024,12.927485 4.68621,8.07968 4.68621,18.09848 0,11.31155 -6.46374,20.1992 -6.30215,8.88764 -18.74486,12.60429 l 26.17816,44.92302 z m -30.21799,-62.37512 h 17.12891 q 7.5949,0 11.31155,-3.71665 3.87825,-3.71666 3.87825,-10.50359 0,-6.62533 -3.87825,-10.34198 -3.71665,-3.87825 -11.31155,-3.87825 h -17.12891 z"
         style="fill:#ffffff;fill-opacity:1;stroke-width:1.8936739"
         id="path3544" />
      <path
         d="m 780.82627,90.730551 v 67.707709 q 0,10.18039 5.0094,15.67457 5.0094,5.49418 14.70502,5.49418 9.69561,0 14.86661,-5.49418 5.17099,-5.49418 5.17099,-15.67457 V 90.730551 h 27.6325 v 67.707709 q 0,15.18979 -6.46374,25.69337 -6.46375,10.50358 -17.45211,15.83617 -10.82677,5.33259 -24.23903,5.33259 -13.41227,0 -24.07744,-5.17099 -10.50359,-5.33259 -16.64414,-15.83617 -6.14056,-10.66518 -6.14056,-25.85497 V 90.730551 Z"
         style="fill:#ffffff;fill-opacity:1;stroke-width:1.8936739"
         id="path3546" />
    </g>
    <path
       style="color:#000000;font-style:normal;font-variant:normal;font-weight:normal;font-stretch:normal;font-size:medium;line-height:normal;font-family:sans-serif;font-variant-ligatures:normal;font-variant-position:normal;font-variant-caps:normal;font-variant-numeric:normal;font-variant-alternates:normal;font-feature-settings:normal;text-indent:0;text-align:start;text-decoration:none;text-decoration-line:none;text-decoration-style:solid;text-decoration-color:#000000;letter-spacing:normal;word-spacing:normal;text-transform:none;writing-mode:lr-tb;direction:ltr;text-orientation:mixed;dominant-baseline:auto;baseline-shift:baseline;text-anchor:start;white-space:normal;shape-padding:0;clip-rule:nonzero;display:inline;overflow:visible;visibility:visible;opacity:1;isolation:auto;mix-blend-mode:normal;color-interpolation:sRGB;color-interpolation-filters:linearRGB;solid-color:#000000;solid-opacity:1;vector-effect:none;fill:#ffffff;fill-opacity:0.93333333;fill-rule:nonzero;stroke:none;stroke-width:11.68450069;stroke-linecap:round;stroke-linejoin:round;stroke-miterlimit:4;stroke-dasharray:none;stroke-dashoffset:0;stroke-opacity:1;paint-order:stroke fill markers;color-rendering:auto;image-rendering:auto;shape-rendering:auto;text-rendering:auto;enable-background:accumulate"
       d="m 656.85053,51.969703 a 5.8428348,5.8428348 0 0 0 -1.5586,0.203126 c -41.5693,10.603671 -71.6059,46.841439 -74.3144,89.656251 a 5.8428348,5.8428348 0 1 0 11.6601,0.73632 c 2.3916,-37.8039 28.8369,-69.70765 65.5411,-79.070307 a 5.8428348,5.8428348 0 0 0 -1.3282,-11.52539 z"
       id="path3424" />
    <path
       style="color:#000000;font-style:normal;font-variant:normal;font-weight:normal;font-stretch:normal;font-size:medium;line-height:normal;font-family:sans-serif;font-variant-ligatures:normal;font-variant-position:normal;font-variant-caps:normal;font-variant-numeric:normal;font-variant-alternates:normal;font-feature-settings:normal;text-indent:0;text-align:start;text-decoration:none;text-decoration-line:none;text-decoration-style:solid;text-decoration-color:#000000;letter-spacing:normal;word-spacing:normal;text-transform:none;writing-mode:lr-tb;direction:ltr;text-orientation:mixed;dominant-baseline:auto;baseline-shift:baseline;text-anchor:start;white-space:normal;shape-padding:0;clip-rule:nonzero;display:inline;overflow:visible;visibility:visible;opacity:1;isolation:auto;mix-blend-mode:normal;color-interpolation:sRGB;color-interpolation-filters:linearRGB;solid-color:#000000;solid-opacity:1;vector-effect:none;fill:#ffffff;fill-opacity:0.93333333;fill-rule:nonzero;stroke:none;stroke-width:11.68450069;stroke-linecap:round;stroke-linejoin:round;stroke-miterlimit:4;stroke-dasharray:none;stroke-dashoffset:0;stroke-opacity:1;paint-order:stroke fill markers;color-rendering:auto;image-rendering:auto;shape-rendering:auto;text-rendering:auto;enable-background:accumulate"
       d="m 678.21583,49.114235 a 5.8428348,5.8428348 0 1 0 0.1816,11.68164 5.8428348,5.8428348 0 1 0 -0.1816,-11.68164 z"
       id="path3426" />
    <g
       id="text4457"
       style="font-style:normal;font-weight:normal;font-size:161.7097168px;line-height:149.25015259px;font-family:sans-serif;text-align:end;letter-spacing:-12.65884018px;word-spacing:0px;text-anchor:end;fill:#c62828;fill-opacity:1;stroke:none;stroke-width:1.89503491"
       aria-label="esta semana no">
      <path
         id="path4110"
         style="font-style:normal;font-variant:normal;font-weight:bold;font-stretch:normal;line-height:149.25015259px;font-family:Poppins;-inkscape-font-specification:'Poppins Bold';text-align:end;letter-spacing:-10.08717632px;text-anchor:end;fill:#c62828;fill-opacity:1;stroke-width:1.89503491"
         d="m -602.10488,162.75367 q 0,3.71932 -0.48513,7.92378 h -62.58166 q 0.64683,8.57061 5.33642,13.09848 4.68958,4.52787 11.80481,4.52787 10.34942,0 14.39216,-8.73232 h 29.43117 q -2.26394,8.89403 -8.2472,16.00926 -5.82155,7.11523 -14.71558,11.15797 -8.89403,4.04275 -19.8903,4.04275 -13.26019,0 -23.60961,-5.65984 -10.34943,-5.65984 -16.17098,-16.17098 -5.82155,-10.51113 -5.82155,-24.57987 0,-14.06875 5.65984,-24.57988 5.82155,-10.51113 16.17098,-16.17097 10.34942,-5.65984 23.77132,-5.65984 13.09849,0 23.2862,5.49813 10.18772,5.49813 15.84756,15.68584 5.82155,10.18771 5.82155,23.60962 z m -28.2992,-6.14497 q 0,-7.76207 -4.8513,-12.12823 -4.85129,-4.36616 -12.12823,-4.36616 -7.11522,0 -11.96651,4.36616 -4.68959,4.20445 -5.82155,12.12823 z" />
      <path
         id="path4112"
         style="font-style:normal;font-variant:normal;font-weight:bold;font-stretch:normal;line-height:149.25015259px;font-family:Poppins;-inkscape-font-specification:'Poppins Bold';text-align:end;letter-spacing:-10.08717632px;text-anchor:end;fill:#c62828;fill-opacity:1;stroke-width:1.89503491"
         d="m -561.21559,210.78146 q -11.6431,0 -20.86056,-4.04275 -9.21745,-4.04274 -14.55387,-10.99626 -5.33642,-7.11523 -5.98326,-15.84755 h 27.32894 q 0.48513,5.013 4.20445,8.08549 3.88104,2.91077 9.70259,2.91077 5.17471,0 7.92377,-2.10223 2.91078,-2.10222 2.91078,-5.65984 0,-3.88103 -4.04274,-5.82155 -4.04275,-1.94051 -13.2602,-4.04274 -9.70258,-2.26393 -16.17097,-4.68958 -6.30668,-2.42565 -10.99626,-7.76207 -4.52788,-5.49813 -4.52788,-14.55387 0,-7.92378 4.20446,-14.23046 4.36616,-6.46839 12.61335,-10.18771 8.2472,-3.88103 19.72859,-3.88103 16.97952,0 26.6821,8.4089 9.8643,8.40891 11.31968,22.31594 h -25.55013 q -0.64684,-5.013 -4.20445,-7.76206 -3.39591,-2.91078 -9.05575,-2.91078 -4.85129,0 -7.43865,1.94052 -2.58735,1.94052 -2.58735,5.49813 0,3.88103 4.04274,5.82155 4.20445,1.94052 12.93678,3.88103 9.86429,2.42565 16.33268,5.013 6.46839,2.42565 11.15797,8.08549 4.68958,5.49813 4.68958,14.87729 0,7.92378 -4.36616,14.23046 -4.36616,6.30668 -12.77507,9.86429 -8.24719,3.55762 -19.40516,3.55762 z" />
      <path
         id="path4114"
         style="font-style:normal;font-variant:normal;font-weight:bold;font-stretch:normal;line-height:149.25015259px;font-family:Poppins;-inkscape-font-specification:'Poppins Bold';text-align:end;letter-spacing:-10.08717632px;text-anchor:end;fill:#c62828;fill-opacity:1;stroke-width:1.89503491"
         d="m -467.22741,186.03987 v 23.44791 h -14.06874 q -15.03901,0 -23.44791,-7.27694 -8.40891,-7.43865 -8.40891,-24.09475 v -35.89955 h -10.99626 v -22.96278 h 10.99626 V 97.261234 h 27.65236 v 21.992526 h 18.11149 v 22.96278 h -18.11149 v 36.22297 q 0,4.04275 1.94052,5.82155 1.94052,1.77881 6.46839,1.77881 z" />
      <path
         id="path4116"
         style="font-style:normal;font-variant:normal;font-weight:bold;font-stretch:normal;line-height:149.25015259px;font-family:Poppins;-inkscape-font-specification:'Poppins Bold';text-align:end;letter-spacing:-10.08717632px;text-anchor:end;fill:#c62828;fill-opacity:1;stroke-width:1.89503491"
         d="m -467.40987,164.20906 q 0,-13.90704 5.17471,-24.41817 5.33642,-10.51113 14.39217,-16.17097 9.05574,-5.65984 20.21371,-5.65984 9.54087,0 16.6561,3.88103 7.27694,3.88103 11.15797,10.18771 v -12.77506 h 27.65236 v 90.23402 h -27.65236 v -12.77507 q -4.04274,6.30668 -11.31968,10.18771 -7.11523,3.88104 -16.6561,3.88104 -10.99626,0 -20.052,-5.65984 -9.05575,-5.82155 -14.39217,-16.33269 -5.17471,-10.67284 -5.17471,-24.57987 z m 67.59466,0.16171 q 0,-10.34943 -5.82155,-16.33268 -5.65984,-5.98326 -13.90703,-5.98326 -8.2472,0 -14.06875,5.98326 -5.65984,5.82155 -5.65984,16.17097 0,10.34942 5.65984,16.49439 5.82155,5.98326 14.06875,5.98326 8.24719,0 13.90703,-5.98326 5.82155,-5.98326 5.82155,-16.33268 z" />
      <path
         id="path4118"
         style="font-style:normal;font-variant:normal;font-weight:bold;font-stretch:normal;line-height:149.25015259px;font-family:Poppins;-inkscape-font-specification:'Poppins Bold';text-align:end;letter-spacing:-10.08717632px;text-anchor:end;fill:#c62828;fill-opacity:1;stroke-width:1.89503491"
         d="m -298.35858,210.78146 q -11.6431,0 -20.86056,-4.04275 -9.21745,-4.04274 -14.55387,-10.99626 -5.33642,-7.11523 -5.98326,-15.84755 h 27.32894 q 0.48513,5.013 4.20445,8.08549 3.88104,2.91077 9.70259,2.91077 5.17471,0 7.92377,-2.10223 2.91078,-2.10222 2.91078,-5.65984 0,-3.88103 -4.04274,-5.82155 -4.04275,-1.94051 -13.2602,-4.04274 -9.70258,-2.26393 -16.17097,-4.68958 -6.30668,-2.42565 -10.99626,-7.76207 -4.52788,-5.49813 -4.52788,-14.55387 0,-7.92378 4.20446,-14.23046 4.36616,-6.46839 12.61335,-10.18771 8.2472,-3.88103 19.72859,-3.88103 16.97952,0 26.6821,8.4089 9.8643,8.40891 11.31968,22.31594 h -25.55013 q -0.64684,-5.013 -4.20445,-7.76206 -3.39591,-2.91078 -9.05575,-2.91078 -4.85129,0 -7.43865,1.94052 -2.58735,1.94052 -2.58735,5.49813 0,3.88103 4.04274,5.82155 4.20445,1.94052 12.93678,3.88103 9.86429,2.42565 16.33268,5.013 6.46839,2.42565 11.15797,8.08549 4.68958,5.49813 4.68958,14.87729 0,7.92378 -4.36616,14.23046 -4.36616,6.30668 -12.77507,9.86429 -8.24719,3.55762 -19.40516,3.55762 z" />
      <path
         id="path4120"
         style="font-style:normal;font-variant:normal;font-weight:bold;font-stretch:normal;line-height:149.25015259px;font-family:Poppins;-inkscape-font-specification:'Poppins Bold';text-align:end;letter-spacing:-10.08717632px;text-anchor:end;fill:#c62828;fill-opacity:1;stroke-width:1.89503491"
         d="m -169.60281,162.75367 q 0,3.71932 -0.48513,7.92378 h -62.58166 q 0.64684,8.57061 5.33642,13.09848 4.68958,4.52787 11.80481,4.52787 10.34942,0 14.39217,-8.73232 h 29.43116 q -2.26393,8.89403 -8.24719,16.00926 -5.82155,7.11523 -14.71559,11.15797 -8.89403,4.04275 -19.89029,4.04275 -13.2602,0 -23.60962,-5.65984 -10.34942,-5.65984 -16.17097,-16.17098 -5.82155,-10.51113 -5.82155,-24.57987 0,-14.06875 5.65984,-24.57988 5.82155,-10.51113 16.17097,-16.17097 10.34942,-5.65984 23.77133,-5.65984 13.09849,0 23.2862,5.49813 10.18771,5.49813 15.84755,15.68584 5.82155,10.18771 5.82155,23.60962 z m -28.2992,-6.14497 q 0,-7.76207 -4.85129,-12.12823 -4.85129,-4.36616 -12.12823,-4.36616 -7.11523,0 -11.96652,4.36616 -4.68958,4.20445 -5.82155,12.12823 z" />
      <path
         id="path4122"
         style="font-style:normal;font-variant:normal;font-weight:bold;font-stretch:normal;line-height:149.25015259px;font-family:Poppins;-inkscape-font-specification:'Poppins Bold';text-align:end;letter-spacing:-10.08717632px;text-anchor:end;fill:#c62828;fill-opacity:1;stroke-width:1.89503491"
         d="m -50.12258,118.2835 q 16.81781,0 26.682103,10.18771 10.026002,10.18771 10.026002,28.2992 v 52.71737 h -27.490651 v -48.99805 q 0,-8.73232 -4.689582,-13.4219 -4.527872,-4.85129 -12.613358,-4.85129 -8.085486,0 -12.775068,4.85129 -4.527872,4.68958 -4.527872,13.4219 v 48.99805 h -27.490654 v -48.99805 q 0,-8.73232 -4.68958,-13.4219 -4.52787,-4.85129 -12.61336,-4.85129 -8.08548,0 -12.77506,4.85129 -4.52788,4.68958 -4.52788,13.4219 v 48.99805 h -27.65236 v -90.23402 h 27.65236 v 11.31968 q 4.20446,-5.65984 10.99626,-8.89404 6.79181,-3.3959 15.36243,-3.3959 10.18771,0 18.111485,4.36616 8.085486,4.36616 12.613358,12.45165 4.689582,-7.43865 12.775068,-12.12823 8.085485,-4.68958 17.626359,-4.68958 z" />
      <path
         id="path4124"
         style="font-style:normal;font-variant:normal;font-weight:bold;font-stretch:normal;line-height:149.25015259px;font-family:Poppins;-inkscape-font-specification:'Poppins Bold';text-align:end;letter-spacing:-10.08717632px;text-anchor:end;fill:#c62828;fill-opacity:1;stroke-width:1.89503491"
         d="m -9.6603117,164.20906 q 0,-13.90704 5.1747109,-24.41817 5.33642068,-10.51113 14.3921648,-16.17097 9.055744,-5.65984 20.213715,-5.65984 9.540873,0 16.6561,3.88103 7.276938,3.88103 11.157971,10.18771 v -12.77506 h 27.652361 v 90.23402 H 57.93435 v -12.77507 q -4.042743,6.30668 -11.31968,10.18771 -7.115228,3.88104 -16.656101,3.88104 -10.996261,0 -20.052005,-5.65984 -9.05574412,-5.82155 -14.3921648,-16.33269 -5.1747109,-10.67284 -5.1747109,-24.57987 z m 67.5946617,0.16171 q 0,-10.34943 -5.82155,-16.33268 -5.65984,-5.98326 -13.907036,-5.98326 -8.247195,0 -14.068745,5.98326 -5.65984,5.82155 -5.65984,16.17097 0,10.34942 5.65984,16.49439 5.82155,5.98326 14.068745,5.98326 8.247196,0 13.907036,-5.98326 5.82155,-5.98326 5.82155,-16.33268 z" />
      <path
         id="path4126"
         style="font-style:normal;font-variant:normal;font-weight:bold;font-stretch:normal;line-height:149.25015259px;font-family:Poppins;-inkscape-font-specification:'Poppins Bold';text-align:end;letter-spacing:-10.08717632px;text-anchor:end;fill:#c62828;fill-opacity:1;stroke-width:1.89503491"
         d="m 150.64401,118.2835 q 15.84755,0 25.22672,10.34942 9.54087,10.18771 9.54087,28.13749 v 52.71737 h -27.49065 v -48.99805 q 0,-9.05574 -4.68958,-14.06874 -4.68958,-5.013 -12.61336,-5.013 -7.92378,0 -12.61336,5.013 -4.68958,5.013 -4.68958,14.06874 v 48.99805 H 95.662709 v -90.23402 h 27.652361 v 11.96651 q 4.20445,-5.98325 11.31968,-9.37916 7.11523,-3.55761 16.00926,-3.55761 z" />
      <path
         id="path4128"
         style="font-style:normal;font-variant:normal;font-weight:bold;font-stretch:normal;line-height:149.25015259px;font-family:Poppins;-inkscape-font-specification:'Poppins Bold';text-align:end;letter-spacing:-10.08717632px;text-anchor:end;fill:#c62828;fill-opacity:1;stroke-width:1.89503491"
         d="m 189.04196,164.20906 q 0,-13.90704 5.17471,-24.41817 5.33642,-10.51113 14.39216,-16.17097 9.05575,-5.65984 20.21372,-5.65984 9.54087,0 16.6561,3.88103 7.27694,3.88103 11.15797,10.18771 v -12.77506 h 27.65236 v 90.23402 h -27.65236 v -12.77507 q -4.04274,6.30668 -11.31968,10.18771 -7.11523,3.88104 -16.6561,3.88104 -10.99626,0 -20.05201,-5.65984 -9.05574,-5.82155 -14.39216,-16.33269 -5.17471,-10.67284 -5.17471,-24.57987 z m 67.59466,0.16171 q 0,-10.34943 -5.82155,-16.33268 -5.65984,-5.98326 -13.90704,-5.98326 -8.24719,0 -14.06874,5.98326 -5.65984,5.82155 -5.65984,16.17097 0,10.34942 5.65984,16.49439 5.82155,5.98326 14.06874,5.98326 8.2472,0 13.90704,-5.98326 5.82155,-5.98326 5.82155,-16.33268 z" />
      <path
         id="path4130"
         style="font-style:normal;font-variant:normal;font-weight:bold;font-stretch:normal;line-height:149.25015259px;font-family:Poppins;-inkscape-font-specification:'Poppins Bold';text-align:end;letter-spacing:-10.08717632px;text-anchor:end;fill:#c62828;fill-opacity:1;stroke-width:1.89503491"
         d="m 376.52811,118.2835 q 15.84755,0 25.22671,10.34942 9.54088,10.18771 9.54088,28.13749 v 52.71737 h -27.49066 v -48.99805 q 0,-9.05574 -4.68958,-14.06874 -4.68958,-5.013 -12.61336,-5.013 -7.92377,0 -12.61335,5.013 -4.68959,5.013 -4.68959,14.06874 v 48.99805 H 321.5468 v -90.23402 h 27.65236 v 11.96651 q 4.20446,-5.98325 11.31968,-9.37916 7.11523,-3.55761 16.00927,-3.55761 z" />
      <path
         id="path4132"
         style="font-style:normal;font-variant:normal;font-weight:bold;font-stretch:normal;line-height:149.25015259px;font-family:Poppins;-inkscape-font-specification:'Poppins Bold';text-align:end;letter-spacing:-10.08717632px;text-anchor:end;fill:#c62828;fill-opacity:1;stroke-width:1.89503491"
         d="m 461.49845,210.78146 q -13.2602,0 -23.93304,-5.65984 -10.51113,-5.65984 -16.6561,-16.17098 -5.98326,-10.51113 -5.98326,-24.57987 0,-13.90704 6.14497,-24.41817 6.14497,-10.67284 16.81781,-16.33268 10.67284,-5.65984 23.93304,-5.65984 13.2602,0 23.93304,5.65984 10.67284,5.65984 16.81781,16.33268 6.14497,10.51113 6.14497,24.41817 0,13.90703 -6.30668,24.57987 -6.14497,10.51114 -16.97952,16.17098 -10.67284,5.65984 -23.93304,5.65984 z m 0,-23.77133 q 7.92378,0 13.42191,-5.82155 5.65984,-5.98326 5.65984,-16.81781 0,-10.83455 -5.49813,-16.6561 -5.33642,-5.98326 -13.2602,-5.98326 -8.08548,0 -13.42191,5.82155 -5.33642,5.82155 -5.33642,16.81781 0,10.83455 5.17471,16.81781 5.33643,5.82155 13.2602,5.82155 z" />
    </g>
  </g>
</svg>
