<?xml version="1.0" encoding="UTF-8" standalone="no"?>
<svg
   xmlns:dc="http://purl.org/dc/elements/1.1/"
   xmlns:cc="http://creativecommons.org/ns#"
   xmlns:rdf="http://www.w3.org/1999/02/22-rdf-syntax-ns#"
   xmlns:svg="http://www.w3.org/2000/svg"
   xmlns="http://www.w3.org/2000/svg"
   width="848.21082mm"
   height="285.20364mm"
   viewBox="0 0 848.21082 285.20365"
   version="1.1"
   id="svg2238">
  <defs
     id="defs2232" />
  <metadata
     id="metadata2235">
    <rdf:RDF>
      <cc:Work
         rdf:about="">
        <dc:format>image/svg+xml</dc:format>
        <dc:type
           rdf:resource="http://purl.org/dc/dcmitype/StillImage" />
        <dc:title></dc:title>
      </cc:Work>
    </rdf:RDF>
  </metadata>
  <path
     id="circle3414"
     d="M 846.37013,142.60182 A 142.60182,142.60182 0 0 1 703.76831,285.20364 142.60182,142.60182 0 0 1 561.16649,142.60182 142.60182,142.60182 0 0 1 703.76831,0 142.60182,142.60182 0 0 1 846.37013,142.60182 Z"
     style="opacity:1;fill:#c62828;fill-opacity:1;stroke:none;stroke-width:3.32891726;stroke-linecap:round;stroke-linejoin:round;stroke-miterlimit:4;stroke-dasharray:none;stroke-opacity:1;paint-order:stroke fill markers" />
  <path
     id="circle3416"
     d="M 825.39929,142.60182 A 121.63098,121.63098 0 0 1 703.76831,264.2328 121.63098,121.63098 0 0 1 582.13733,142.60182 121.63098,121.63098 0 0 1 703.76831,20.97084 121.63098,121.63098 0 0 1 825.39929,142.60182 Z"
     style="opacity:1;fill:#8e0000;fill-opacity:1;stroke:none;stroke-width:2.8393712;stroke-linecap:round;stroke-linejoin:round;stroke-miterlimit:4;stroke-dasharray:none;stroke-opacity:1;paint-order:stroke fill markers" />
  <g
     id="text3422"
     style="font-style:normal;font-weight:normal;font-size:161.59356689px;line-height:149.14292908px;font-family:sans-serif;letter-spacing:-12.64974594px;word-spacing:0px;fill:#c62828;fill-opacity:1;stroke:none;stroke-width:1.8936739"
     aria-label="RU">
    <path
       id="path3544"
       style="fill:#ffffff;fill-opacity:1;stroke-width:1.8936739"
       d="m 716.19443,204.16924 -23.59266,-42.8223 h -6.62533 v 42.8223 h -27.6325 V 90.730551 h 46.37735 q 13.41227,0 22.78469,4.686214 9.53402,4.686215 14.22024,12.927485 4.68621,8.07968 4.68621,18.09848 0,11.31155 -6.46374,20.1992 -6.30215,8.88764 -18.74486,12.60429 l 26.17816,44.92302 z m -30.21799,-62.37512 h 17.12891 q 7.5949,0 11.31155,-3.71665 3.87825,-3.71666 3.87825,-10.50359 0,-6.62533 -3.87825,-10.34198 -3.71665,-3.87825 -11.31155,-3.87825 h -17.12891 z" />
    <path
       id="path3546"
       style="fill:#ffffff;fill-opacity:1;stroke-width:1.8936739"
       d="m 780.82627,90.730551 v 67.707709 q 0,10.18039 5.0094,15.67457 5.0094,5.49418 14.70502,5.49418 9.69561,0 14.86661,-5.49418 5.17099,-5.49418 5.17099,-15.67457 V 90.730551 h 27.6325 v 67.707709 q 0,15.18979 -6.46374,25.69337 -6.46375,10.50358 -17.45211,15.83617 -10.82677,5.33259 -24.23903,5.33259 -13.41227,0 -24.07744,-5.17099 -10.50359,-5.33259 -16.64414,-15.83617 -6.14056,-10.66518 -6.14056,-25.85497 V 90.730551 Z" />
  </g>
  <path
     id="path3424"
     d="m 680.86328,46.494141 a 5.8428346,5.8428346 0 0 0 -1.55859,0.203125 C 637.73539,57.30094 607.6988,93.538705 604.99023,136.35352 a 5.8428346,5.8428346 0 1 0 11.66016,0.73632 c 2.39156,-37.803905 28.83685,-69.707653 65.54102,-79.070309 a 5.8428346,5.8428346 0 0 0 -1.32813,-11.52539 z"
     style="color:#000000;font-style:normal;font-variant:normal;font-weight:normal;font-stretch:normal;font-size:medium;line-height:normal;font-family:sans-serif;font-variant-ligatures:normal;font-variant-position:normal;font-variant-caps:normal;font-variant-numeric:normal;font-variant-alternates:normal;font-feature-settings:normal;text-indent:0;text-align:start;text-decoration:none;text-decoration-line:none;text-decoration-style:solid;text-decoration-color:#000000;letter-spacing:normal;word-spacing:normal;text-transform:none;writing-mode:lr-tb;direction:ltr;text-orientation:mixed;dominant-baseline:auto;baseline-shift:baseline;text-anchor:start;white-space:normal;shape-padding:0;clip-rule:nonzero;display:inline;overflow:visible;visibility:visible;opacity:1;isolation:auto;mix-blend-mode:normal;color-interpolation:sRGB;color-interpolation-filters:linearRGB;solid-color:#000000;solid-opacity:1;vector-effect:none;fill:#ffffff;fill-opacity:0.93333333;fill-rule:nonzero;stroke:none;stroke-width:11.68450069;stroke-linecap:round;stroke-linejoin:round;stroke-miterlimit:4;stroke-dasharray:none;stroke-dashoffset:0;stroke-opacity:1;paint-order:stroke fill markers;color-rendering:auto;image-rendering:auto;shape-rendering:auto;text-rendering:auto;enable-background:accumulate" />
  <path
     id="path3426"
     d="m 702.22852,43.638672 a 5.8428346,5.8428346 0 1 0 0.18164,11.68164 5.8428346,5.8428346 0 1 0 -0.18164,-11.68164 z"
     style="color:#000000;font-style:normal;font-variant:normal;font-weight:normal;font-stretch:normal;font-size:medium;line-height:normal;font-family:sans-serif;font-variant-ligatures:normal;font-variant-position:normal;font-variant-caps:normal;font-variant-numeric:normal;font-variant-alternates:normal;font-feature-settings:normal;text-indent:0;text-align:start;text-decoration:none;text-decoration-line:none;text-decoration-style:solid;text-decoration-color:#000000;letter-spacing:normal;word-spacing:normal;text-transform:none;writing-mode:lr-tb;direction:ltr;text-orientation:mixed;dominant-baseline:auto;baseline-shift:baseline;text-anchor:start;white-space:normal;shape-padding:0;clip-rule:nonzero;display:inline;overflow:visible;visibility:visible;opacity:1;isolation:auto;mix-blend-mode:normal;color-interpolation:sRGB;color-interpolation-filters:linearRGB;solid-color:#000000;solid-opacity:1;vector-effect:none;fill:#ffffff;fill-opacity:0.93333333;fill-rule:nonzero;stroke:none;stroke-width:11.68450069;stroke-linecap:round;stroke-linejoin:round;stroke-miterlimit:4;stroke-dasharray:none;stroke-dashoffset:0;stroke-opacity:1;paint-order:stroke fill markers;color-rendering:auto;image-rendering:auto;shape-rendering:auto;text-rendering:auto;enable-background:accumulate" />
  <g
     id="text3432"
     style="font-style:normal;font-weight:normal;font-size:161.59356689px;line-height:149.14292908px;font-family:sans-serif;letter-spacing:-12.64974594px;word-spacing:0px;fill:#c62828;fill-opacity:1;stroke:none;stroke-width:1.8936739"
     aria-label="hoje no">
    <path
       id="path3529"
       style="font-style:normal;font-variant:normal;font-weight:bold;font-stretch:normal;line-height:149.14292908px;font-family:Poppins;-inkscape-font-specification:'Poppins Bold';letter-spacing:-10.07993031px;fill:#c62828;fill-opacity:1;stroke-width:1.8936739"
       d="m 55.426594,113.03046 q 15.512982,0 24.885409,10.34199 9.372427,10.1804 9.372427,28.11728 v 52.67951 H 62.213524 v -48.96286 q 0,-9.04924 -4.686214,-14.05864 -4.686213,-5.0094 -12.604298,-5.0094 -7.918085,0 -12.604298,5.0094 -4.686214,5.0094 -4.686214,14.05864 v 48.96286 H 4.119873e-7 V 84.589996 H 27.6325 v 41.529544 q 4.201433,-5.97896 11.473144,-9.53402 7.27171,-3.55506 16.32095,-3.55506 z" />
    <path
       id="path3531"
       style="font-style:normal;font-variant:normal;font-weight:bold;font-stretch:normal;line-height:149.14292908px;font-family:Poppins;-inkscape-font-specification:'Poppins Bold';letter-spacing:-10.07993031px;fill:#c62828;fill-opacity:1;stroke-width:1.8936739"
       d="m 139.85112,205.46198 q -13.25067,0 -23.91584,-5.65577 -10.50359,-5.65578 -16.644141,-16.15936 -5.978962,-10.50358 -5.978962,-24.56222 0,-13.89705 6.140556,-24.40063 6.140557,-10.66517 16.805727,-16.32095 10.66518,-5.65577 23.91585,-5.65577 13.25067,0 23.91585,5.65577 10.66518,5.65578 16.80573,16.32095 6.14056,10.50358 6.14056,24.40063 0,13.89705 -6.30215,24.56222 -6.14056,10.50358 -16.96733,16.15936 -10.66517,5.65577 -23.91585,5.65577 z m 0,-23.75425 q 7.91809,0 13.41227,-5.81737 5.65578,-5.97896 5.65578,-16.80573 0,-10.82677 -5.49419,-16.64414 -5.33258,-5.97896 -13.25067,-5.97896 -8.07968,0 -13.41226,5.81737 -5.33259,5.81737 -5.33259,16.80573 0,10.82677 5.17099,16.80573 5.33259,5.81737 13.25067,5.81737 z" />
    <path
       id="path3533"
       style="font-style:normal;font-variant:normal;font-weight:bold;font-stretch:normal;line-height:149.14292908px;font-family:Poppins;-inkscape-font-specification:'Poppins Bold';letter-spacing:-10.07993031px;fill:#c62828;fill-opacity:1;stroke-width:1.8936739"
       d="m 205.35154,104.6276 q -7.27171,0 -11.95792,-4.20143 -4.52462,-4.363031 -4.52462,-10.66518 0,-6.463743 4.52462,-10.665176 4.68621,-4.363026 11.95792,-4.363026 7.11012,0 11.63474,4.363026 4.68621,4.201433 4.68621,10.665176 0,6.302149 -4.68621,10.66518 -4.52462,4.20143 -11.63474,4.20143 z m 13.89705,111.17637 q 0,16.64414 -8.40287,23.91585 -8.40286,7.4333 -23.43106,7.4333 h -10.82677 v -23.43106 h 6.62533 q 4.52462,0 6.46375,-1.77753 1.93912,-1.77753 1.93912,-5.81737 V 114.00002 h 27.6325 z" />
    <path
       id="path3535"
       style="font-style:normal;font-variant:normal;font-weight:bold;font-stretch:normal;line-height:149.14292908px;font-family:Poppins;-inkscape-font-specification:'Poppins Bold';letter-spacing:-10.07993031px;fill:#c62828;fill-opacity:1;stroke-width:1.8936739"
       d="m 314.19185,157.46869 q 0,3.71666 -0.48478,7.91809 h -62.53671 q 0.64637,8.56446 5.33259,13.08908 4.68621,4.52462 11.79633,4.52462 10.34199,0 14.38183,-8.72605 h 29.41002 q -2.26231,8.88764 -8.24127,15.99776 -5.81737,7.11012 -14.70501,11.14995 -8.88765,4.03984 -19.87601,4.03984 -13.25067,0 -23.59266,-5.65577 -10.34199,-5.65578 -16.15936,-16.15936 -5.81737,-10.50358 -5.81737,-24.56222 0,-14.05864 5.65578,-24.56222 5.81737,-10.50358 16.15935,-16.15936 10.34199,-5.65577 23.75426,-5.65577 13.08908,0 23.26947,5.49418 10.1804,5.49418 15.83617,15.67457 5.81737,10.1804 5.81737,23.59266 z m -28.27887,-6.14055 q 0,-7.75649 -4.84781,-12.11952 -4.84781,-4.36302 -12.11952,-4.36302 -7.11012,0 -11.95792,4.36302 -4.68622,4.20143 -5.81737,12.11952 z" />
    <path
       id="path3537"
       style="font-style:normal;font-variant:normal;font-weight:bold;font-stretch:normal;line-height:149.14292908px;font-family:Poppins;-inkscape-font-specification:'Poppins Bold';letter-spacing:-10.07993031px;fill:#c62828;fill-opacity:1;stroke-width:1.8936739"
       d="m 400.63578,113.03046 q 15.83617,0 25.2086,10.34199 9.53402,10.1804 9.53402,28.11728 v 52.67951 h -27.47091 v -48.96286 q 0,-9.04924 -4.68621,-14.05864 -4.68621,-5.0094 -12.6043,-5.0094 -7.91808,0 -12.6043,5.0094 -4.68621,5.0094 -4.68621,14.05864 v 48.96286 h -27.6325 v -90.16922 h 27.6325 v 11.95793 q 4.20143,-5.97896 11.31155,-9.37243 7.11012,-3.55506 15.99776,-3.55506 z" />
    <path
       id="path3539"
       style="font-style:normal;font-variant:normal;font-weight:bold;font-stretch:normal;line-height:149.14292908px;font-family:Poppins;-inkscape-font-specification:'Poppins Bold';letter-spacing:-10.07993031px;fill:#c62828;fill-opacity:1;stroke-width:1.8936739"
       d="m 485.54507,205.46198 q -13.25067,0 -23.91585,-5.65577 -10.50358,-5.65578 -16.64413,-16.15936 -5.97897,-10.50358 -5.97897,-24.56222 0,-13.89705 6.14056,-24.40063 6.14056,-10.66517 16.80573,-16.32095 10.66518,-5.65577 23.91585,-5.65577 13.25067,0 23.91585,5.65577 10.66517,5.65578 16.80573,16.32095 6.14055,10.50358 6.14055,24.40063 0,13.89705 -6.30215,24.56222 -6.14055,10.50358 -16.96732,16.15936 -10.66518,5.65577 -23.91585,5.65577 z m 0,-23.75425 q 7.91809,0 13.41227,-5.81737 5.65577,-5.97896 5.65577,-16.80573 0,-10.82677 -5.49418,-16.64414 -5.33259,-5.97896 -13.25067,-5.97896 -8.07968,0 -13.41227,5.81737 -5.33259,5.81737 -5.33259,16.80573 0,10.82677 5.171,16.80573 5.33259,5.81737 13.25067,5.81737 z" />
  </g>
  <path
     d="m 790.2468,814.93016 a 109.41469,109.41469 0 0 1 0.001,-10e-6"
     id="path4522"
     style="opacity:1;fill:none;fill-opacity:1;stroke:#ffffff;stroke-width:13.72710609;stroke-linecap:round;stroke-linejoin:round;stroke-miterlimit:4;stroke-dasharray:none;stroke-opacity:0.93333333;paint-order:stroke fill markers" />
</svg>
